<svg viewBox="0 0 48 48" xmlns="http://www.w3.org/2000/svg" fill-rule="evenodd" clip-rule="evenodd" stroke-linejoin="round" stroke-miterlimit="2"><path d="M45.978 24L24 38.298 2.022 24v-8.086c0-1.564.791-3.023 2.103-3.876L21.478.748a4.627 4.627 0 0 1 5.044 0l17.353 11.29a4.624 4.624 0 0 1 2.103 3.876V24zm-35.814-5.297L24 27.704l13.836-9.001L24 9.702l-13.836 9.001z" fill="#a2a2a2"/><path d="M24 20.296V9.702L45.978 24v2.069a4.625 4.625 0 0 1-7.146 3.876L24 20.296z" fill="#d3d3d3"/><path d="M37.836 29.297L24 20.296l-13.836 9.001L24 38.298l13.836-9.001zm8.142 2.789a4.624 4.624 0 0 1-2.103 3.876l-17.353 11.29a4.627 4.627 0 0 1-5.044 0L4.125 35.962a4.624 4.624 0 0 1-2.103-3.876V24L24 9.702 45.978 24v8.086z" fill="#d3d3d3"/><path d="M24 27.704v10.594L45.978 24v-2.069a4.625 4.625 0 0 0-7.146-3.876L24 27.704z" fill="#a2a2a2"/></svg>