<?xml version="1.0" encoding="UTF-8" standalone="no"?><!DOCTYPE svg PUBLIC "-//W3C//DTD SVG 1.1//EN" "http://www.w3.org/Graphics/SVG/1.1/DTD/svg11.dtd"><svg width="100%" height="100%" viewBox="0 0 48 48" version="1.1" xmlns="http://www.w3.org/2000/svg" xmlns:xlink="http://www.w3.org/1999/xlink" xml:space="preserve" xmlns:serif="http://www.serif.com/" style="fill-rule:evenodd;clip-rule:evenodd;stroke-linejoin:round;stroke-miterlimit:1.41421;"><circle cx="24" cy="24" r="24" style="fill-opacity:0.203922;"/><path d="M24,21.116l7.745,-7.745c0.796,-0.796 2.088,-0.796 2.884,0c0.796,0.796 0.796,2.088 0,2.884l-7.745,7.745l7.745,7.745c0.796,0.796 0.796,2.088 0,2.884c-0.796,0.796 -2.088,0.796 -2.884,0l-7.745,-7.745l-7.745,7.745c-0.796,0.796 -2.088,0.796 -2.884,0c-0.796,-0.796 -0.796,-2.088 0,-2.884l7.745,-7.745l-7.745,-7.745c-0.796,-0.796 -0.796,-2.088 0,-2.884c0.796,-0.796 2.088,-0.796 2.884,0l7.745,7.745Z" style="fill-opacity:0.701961;"/></svg>