<svg viewBox="0 0 48 48" xmlns="http://www.w3.org/2000/svg" fill-rule="evenodd" clip-rule="evenodd" stroke-linejoin="round" stroke-miterlimit="2"><path d="M31.039 35.745c-.75 0-1.351-.525-1.501-1.276l-1.325-7.447a35.984 35.984 0 0 1-4.229.242c-1.489 0-2.893-.085-4.216-.24l-1.338 7.52c-.151.676-.826 1.201-1.502 1.201h-.225a1.465 1.465 0 0 1-1.201-1.726l1.331-7.478c-3.492-.748-6.328-2.006-8.605-3.438L5.82 29.741c-.226.6-.826.975-1.427.975-.15 0-.375 0-.525-.075-.751-.3-1.201-1.126-.901-1.951l2.7-7.441c-3.9-3.238-5.436-6.626-5.552-6.896-.3-.75 0-1.651.751-1.951.75-.3 1.651 0 1.951.75.119.238 1.557 3.324 5.243 6.183.221.099.414.245.566.423 3.3 2.387 8.233 4.503 15.358 4.503 7.151 0 12.094-2.132 15.394-4.529.146-.166.325-.304.529-.397 3.686-2.859 5.125-5.945 5.244-6.183.3-.75 1.201-1.125 1.951-.75.751.3 1.126 1.201.751 1.951-.116.27-1.653 3.658-5.552 6.896l2.7 7.441c.3.75-.151 1.651-.901 1.951-.15 0-.375.075-.526.075-.6 0-1.201-.375-1.426-.975l-2.408-6.638c-2.272 1.429-5.101 2.684-8.583 3.433l1.384 7.483a1.465 1.465 0 0 1-1.201 1.726h-.301z" fill-rule="nonzero"/></svg>