<svg viewBox="0 0 48 48" xmlns="http://www.w3.org/2000/svg" fill-rule="evenodd" clip-rule="evenodd" stroke-linejoin="round" stroke-miterlimit="2"><g fill-rule="nonzero"><path d="M48 24.005c0-.288-.05-.53-.064-.557a2.78 2.78 0 0 0-.104-.541l-.042-.104a1.668 1.668 0 0 0-.08-.216C43.283 12.906 33.756 6.401 24.001 6.401c-9.753 0-19.281 6.5-23.687 16.129a1.57 1.57 0 0 0-.114.292l-.032.08c-.088.255-.089.432-.081.388a6.445 6.445 0 0 0-.079.558c-.011.114-.011.202.002.315 0 0 .037.323.054.391.007.091.029.225.056.348H.119c.022.104.056.205.099.304.024.077.049.149.073.202 4.432 9.684 13.96 16.191 23.71 16.191 9.756 0 19.284-6.502 23.66-16.084a1.65 1.65 0 0 0 .142-.345 1.356 1.356 0 0 0 .12-.503l-.001.002c.03-.155.078-.387.078-.664zm-3.233.118l-.007.024-.021.069c-3.937 8.488-12.254 14.183-20.738 14.183-8.464 0-16.766-5.678-20.743-14.197-.008-.029-.016-.058-.026-.085-.003-.027-.008-.051-.01-.067a1.903 1.903 0 0 1-.009-.063l.001-.021c.008-.035.015-.072.02-.11l.019-.064C7.194 15.3 15.516 9.601 24.001 9.601c8.488 0 16.809 5.703 20.737 14.183.005.016.008.03.013.042l.012.043c.008.064.016.126.024.158-.009.032-.014.064-.02.096z"/><path d="M24.001 16c-4.411 0-8 3.589-8 8s3.589 8 8 8 8-3.589 8-8-3.589-8-8-8zm0 12.8a4.806 4.806 0 0 1-4.8-4.8c0-2.646 2.154-4.8 4.8-4.8s4.8 2.154 4.8 4.8-2.154 4.8-4.8 4.8z"/></g></svg>