<svg viewBox="0 0 48 48" xmlns="http://www.w3.org/2000/svg" fill-rule="evenodd" clip-rule="evenodd" stroke-linejoin="round" stroke-miterlimit="2"><path d="M33.106 35.524a20.046 20.046 0 0 1-12.973 4.742C9.014 40.266 0 31.252 0 20.133S9.014 0 20.133 0s20.133 9.014 20.133 20.133c0 4.967-1.802 9.51-4.783 13.021l7.647 7.647.041.043 4.338 4.338a1.677 1.677 0 0 1-2.372 2.372l-12.031-12.03zm-12.973 1.387c-9.266 0-16.777-7.512-16.777-16.778 0-9.266 7.511-16.777 16.777-16.777 9.266 0 16.778 7.511 16.778 16.777 0 9.266-7.512 16.778-16.778 16.778z"/></svg>