<?xml version="1.0" encoding="UTF-8" standalone="no"?><!DOCTYPE svg PUBLIC "-//W3C//DTD SVG 1.1//EN" "http://www.w3.org/Graphics/SVG/1.1/DTD/svg11.dtd"><svg width="100%" height="100%" viewBox="0 0 120 112" version="1.1" xmlns="http://www.w3.org/2000/svg" xmlns:xlink="http://www.w3.org/1999/xlink" xml:space="preserve" xmlns:serif="http://www.serif.com/" style="fill-rule:evenodd;clip-rule:evenodd;stroke-linejoin:round;stroke-miterlimit:2;"><path d="M16.344,65.222c7.673,-17.125 18.415,-38.067 32.441,-59.945c0.716,-1.118 2.275,-2.67 3.526,-3.417c2.079,-1.244 4.39,-2.617 6.854,-1.296c0.774,0.62 0.277,2.478 0.004,3.116c-5.534,12.955 -10.116,23.907 -2.646,95.679c0,0 -3.033,4.651 -6.993,4.123c-2.213,-0.165 -2.737,-0.572 -2.845,-0.692c-1.702,-1.535 -4.537,-12.011 0.734,-72.017c0,0 -0.309,-1.142 -0.778,-1.291c-0.73,-0.231 -1.896,-0.277 -3.075,1.009c-0.991,1.081 -8.618,14.158 -16.538,30.375l12.421,-5.064c0.375,-0.153 0.801,-0.101 1.128,0.138c0.327,0.238 0.506,0.628 0.475,1.031l0,0.002c-0.161,2.102 -1.369,3.984 -3.215,5.005l-15.351,8.495c-5.933,13.004 -11.333,26.841 -13.407,37.615c0,0 -1.718,3.778 -4.809,3.606c0,0 -2.404,-0.858 -2.748,-5.152c-0.158,-1.981 3.06,-13.252 9.94,-29.967l-2.764,1.529c0,0 -1.783,0.899 -2.972,0.107l-5.33,-4.034c0,0 -1.311,-1.593 0.839,-2.795l15.109,-6.16Zm48.759,9.486l-2.144,-2.905c0,0 -0.835,-1.115 0.132,-2.673c0,0 1.086,-1.912 2.691,-0.626c0,0 0.614,0.649 1.464,2.184c0,0 6.421,-10.716 17.262,-15.398c0,0 4.898,-1.549 7.42,3.421c0,0 1.945,5.007 -5.727,8.896c0,0 -1.323,0.515 -1.417,-0.725c0,0 0.696,-3.788 -1.428,-3.906c0,0 -4.648,-1.353 -14.502,11.239c0,0 3.872,11.024 -1.262,24.341c0,0 -2.373,5.76 -5.877,6.728c0,0 -0.968,0.093 -1.36,-1.152c0,0 -4.83,-10.688 4.748,-29.424Zm44.113,-45.732c2.86,-3.812 4.724,-3.08 4.724,-3.08c0.205,0.052 0.397,0.272 0.56,0.548c0.439,0.729 0.406,1.648 -0.085,2.343c-1.407,2.153 -2.988,5.244 -4.519,8.539c-0.915,2.573 -1.393,5.597 1.191,5.994c3.258,-0.501 6.006,-0.923 7.497,-1.152c0.662,-0.102 1.281,0.352 1.383,1.014l0,0.002c0.238,1.552 -0.827,3.004 -2.379,3.242l-12.424,1.909c-1.425,3.536 -2.363,6.049 -2.363,6.049c-14.548,37.905 -9.838,40.644 -9.838,40.644c1.574,4.155 8.265,1.618 8.265,1.618c6.314,-1.283 11.445,-6.777 13.294,-8.997c0.499,-0.61 1.167,-1.06 1.921,-1.29c0.249,-0.076 0.519,-0.02 0.717,0.148c0.043,0.036 0.088,0.073 0.132,0.112c0.257,0.217 0.305,0.594 0.112,0.87c-1.93,2.753 -10.117,14.008 -17.997,16.635c-8.508,2.836 -11.772,-5.499 -11.772,-5.499c-1.805,-4.485 0.821,-16.683 0.821,-16.683c2.45,-10.87 7.022,-22.915 11.253,-32.769l-9.618,1.478c-0.748,0.115 -1.447,-0.398 -1.562,-1.146l0,-0.001c-0.226,-1.466 0.781,-2.838 2.248,-3.063l10.861,-1.669c4.16,-9.305 7.565,-15.771 7.578,-15.796Zm-43.259,53.247c-0.005,-0.124 -0.097,-0.227 -0.219,-0.245c-0.123,-0.019 -0.242,0.051 -0.283,0.168c-0.764,2.289 -2.273,7.587 -2.13,13.331c0.003,0.101 0.073,0.187 0.171,0.21c0.098,0.024 0.199,-0.022 0.247,-0.11c0.794,-1.72 2.523,-6.328 2.214,-13.354Z" style="fill:#3864ff;"/></svg>